<svg version="1.1" id="Layer_1" xmlns="http://www.w3.org/2000/svg" xmlns:xlink="http://www.w3.org/1999/xlink" x="0px" y="0px"
	 width="100%" viewBox="0 0 438 186" enable-background="new 0 0 438 186" xml:space="preserve">
<path fill="#FEFEFD" opacity="1.000000" stroke="none" 
	d="
M267.000000,187.000000 
	C178.000031,187.000000 89.500053,187.000000 1.000059,187.000000 
	C1.000040,125.000046 1.000040,63.000092 1.000020,1.000101 
	C146.999908,1.000067 292.999817,1.000067 438.999817,1.000034 
	C438.999878,62.999893 438.999878,124.999786 438.999939,186.999847 
	C381.833344,187.000000 324.666656,187.000000 267.000000,187.000000 
M131.367615,139.830917 
	C134.931900,137.678055 138.433319,135.410782 142.079681,133.407318 
	C145.186996,131.700043 146.622833,129.316895 146.604172,125.746872 
	C146.526627,110.914032 146.557816,96.080551 146.573578,81.247330 
	C146.577271,77.773216 145.247284,75.370102 142.029648,73.626129 
	C132.513672,68.468414 123.157059,63.017502 113.708061,57.735023 
	C109.056671,55.134659 105.723022,55.691612 103.886017,59.382965 
	C101.742409,63.690414 103.990814,66.205482 107.586594,68.277344 
	C115.090843,72.601212 122.684357,76.808197 129.882111,81.602318 
	C131.990082,83.006355 134.032455,86.176872 134.141312,88.625046 
	C134.607239,99.104256 134.524536,109.622116 134.182175,120.110878 
	C134.114365,122.188324 132.503860,124.882645 130.768433,126.107056 
	C126.432106,129.166519 121.689575,131.686859 116.970787,134.157562 
	C111.994591,136.763062 107.897896,134.372589 107.568932,128.788025 
	C107.392807,125.798073 107.475777,122.788963 107.531914,119.790184 
	C107.607529,115.750832 106.178665,112.883972 101.770874,112.529137 
	C97.871986,112.215263 95.425697,114.877747 95.327591,119.680428 
	C95.198280,126.011147 95.286095,132.346375 95.286522,138.679657 
	C95.287239,149.179581 95.226883,159.680130 95.329521,170.179092 
	C95.368927,174.209564 97.286690,177.003845 101.671112,176.897949 
	C105.749336,176.799438 107.529861,174.203888 107.585793,170.309799 
	C107.631264,167.143768 107.813683,163.960068 107.562492,160.813980 
	C107.186569,156.105591 108.923355,152.979019 113.150177,150.694870 
	C119.151985,147.451508 124.897415,143.733704 131.367615,139.830917 
M59.999802,141.487686 
	C64.993027,144.483459 69.896515,147.644150 75.006683,150.425034 
	C79.429008,152.831573 81.697762,156.019852 81.120529,161.256821 
	C80.758293,164.543182 80.891121,167.923859 81.172493,171.230682 
	C81.480423,174.849640 83.526237,177.133682 87.388908,176.927811 
	C91.151039,176.727325 93.110542,174.515091 93.115860,170.753555 
	C93.140320,153.440445 93.109436,136.127258 93.136894,118.814156 
	C93.143517,114.638260 90.918503,112.582413 86.989456,112.616211 
	C83.232689,112.648529 81.232773,114.873604 81.177605,118.672882 
	C81.131691,121.835258 81.241432,125.001480 81.135307,128.161072 
	C80.920799,134.547318 76.601326,136.973816 70.939064,133.872482 
	C66.709045,131.555634 62.258820,129.483231 58.482601,126.558380 
	C56.428898,124.967697 54.487442,121.875053 54.373840,119.374512 
	C53.913452,109.240578 53.913342,99.061363 54.373154,88.927429 
	C54.485630,86.448570 56.402637,83.202690 58.490589,81.815109 
	C65.962769,76.849335 73.851822,72.508202 81.609863,67.976463 
	C85.124870,65.923218 86.833557,63.146183 84.679520,59.304733 
	C82.543709,55.495750 79.285934,55.321281 75.701118,57.346657 
	C65.851311,62.911648 55.868019,68.260025 46.250008,74.200050 
	C44.172867,75.482880 42.282753,78.860092 42.220894,81.320709 
	C41.848663,96.127449 41.846397,110.952919 42.217808,125.759636 
	C42.279823,128.231934 44.232719,131.332596 46.264301,132.936584 
	C50.282043,136.108734 54.965561,138.437653 59.999802,141.487686 
M105.042336,83.581703 
	C103.612511,78.732819 101.295380,77.714851 96.852798,79.421921 
	C95.367119,79.992798 93.267609,79.925163 91.772957,79.332123 
	C87.462517,77.621849 84.557915,79.220970 83.748405,83.714279 
	C83.436531,85.445351 82.398155,87.473137 81.038071,88.507339 
	C77.007957,91.571838 76.966507,95.182800 81.004608,98.166107 
	C82.281311,99.109314 83.472580,100.964516 83.614258,102.502617 
	C84.093811,107.708916 87.134567,109.543083 91.999489,107.524017 
	C93.475380,106.911484 95.614273,106.945595 97.118652,107.532120 
	C101.504410,109.242020 104.323105,107.673119 105.087402,103.221260 
	C105.400879,101.395294 106.648056,99.330147 108.106308,98.179764 
	C111.609848,95.415886 111.725410,91.532570 108.259361,88.869087 
	C106.854340,87.789406 106.070488,85.901382 105.042336,83.581703 
M281.500153,133.805084 
	C282.327118,132.585114 283.793640,131.402573 283.867554,130.138565 
	C284.149078,125.325928 283.981110,120.487000 283.981110,115.657898 
	C285.849609,120.056030 286.591309,124.632668 288.073181,128.955582 
	C288.746307,130.919235 290.885468,132.380341 292.359589,134.069427 
	C293.847565,132.385727 296.029480,130.933762 296.684570,128.971939 
	C298.228699,124.347847 299.045074,119.480751 300.155823,114.711952 
	C300.460815,114.757706 300.765808,114.803459 301.070801,114.849213 
	C301.070801,121.077278 301.070801,127.305344 301.070801,133.443390 
	C304.628265,134.488159 305.937439,133.465240 305.793182,129.980118 
	C305.573029,124.661415 306.014801,119.303787 305.578217,114.011978 
	C305.430176,112.218094 303.807953,109.603554 302.269104,109.071526 
	C299.449646,108.096756 297.363495,109.708679 296.667175,113.012833 
	C295.543335,118.345444 294.077332,123.605949 292.755829,128.896912 
	C290.666565,123.561356 289.569366,118.063148 287.840820,112.771164 
	C287.318085,111.170830 285.211761,109.511978 283.518829,109.067047 
	C282.341309,108.757576 279.375519,110.445488 279.355499,111.291855 
	C279.180115,118.709190 279.484863,126.138031 279.691681,133.562241 
	C279.694031,133.646622 280.285583,133.714600 281.500153,133.805084 
M309.796143,122.495697 
	C309.796143,126.125992 309.796143,129.756287 309.796143,133.782928 
	C311.605225,133.645126 312.933929,133.543900 314.767212,133.404251 
	C314.767212,127.410202 314.767212,121.819618 314.767212,116.229034 
	C316.713135,120.819687 317.534058,125.537621 319.031952,130.029816 
	C319.571747,131.648544 321.778198,133.799026 323.151031,133.747849 
	C324.535187,133.696228 326.498932,131.428040 327.035889,129.754669 
	C328.634521,124.772911 329.656891,119.606247 330.904419,114.511841 
	C331.182678,114.561821 331.460907,114.611794 331.739136,114.661774 
	C331.739136,120.866806 331.739136,127.071838 331.739136,133.405701 
	C333.326202,133.405701 334.647827,133.405701 336.171722,133.405701 
	C336.171722,126.379105 336.353943,119.723114 336.028687,113.092026 
	C335.957703,111.644951 334.115784,109.183723 333.015045,109.141762 
	C331.289093,109.075974 329.377319,110.502396 327.798737,111.647583 
	C327.182953,112.094315 327.259735,113.492073 327.015472,114.455246 
	C325.808563,119.214531 324.599792,123.973343 323.391663,128.732315 
	C321.140686,123.180275 320.199554,117.746315 318.374512,112.627518 
	C317.779236,110.958023 314.992249,109.624008 312.971649,109.156525 
	C312.287170,108.998161 310.287445,111.857475 309.935150,113.554924 
	C309.405365,116.107460 309.796509,118.851120 309.796143,122.495697 
M233.133362,85.220726 
	C232.254623,82.212517 231.873550,78.906425 230.316147,76.304436 
	C229.334473,74.664368 226.619553,73.379005 224.629547,73.302475 
	C223.575745,73.261948 221.544128,76.093224 221.448013,77.716499 
	C221.085205,83.843338 221.328644,90.006500 221.377075,96.155823 
	C221.379120,96.415695 221.699539,96.673073 221.962997,97.068802 
	C223.146606,97.068802 224.408340,97.068802 226.092865,97.068802 
	C226.092865,91.086418 226.092865,85.293564 226.092865,79.500710 
	C228.286560,84.068680 229.766678,88.711479 230.991974,93.420593 
	C231.795212,96.507652 233.726837,97.950081 236.713760,97.782852 
	C239.972595,97.600395 240.512985,95.283615 240.469589,92.478020 
	C240.372208,86.181671 240.439087,79.882782 240.439087,73.340744 
	C238.850052,73.340744 237.624237,73.340744 236.004745,73.340744 
	C236.004745,76.416954 236.004745,79.385590 236.004745,82.354225 
	C236.004745,85.359238 236.004745,88.364258 236.004745,91.369270 
	C235.725739,91.398773 235.446716,91.428276 235.167709,91.457771 
	C234.556946,89.637306 233.946182,87.816841 233.133362,85.220726 
M420.656525,79.024551 
	C420.656311,81.675102 420.625671,84.326057 420.661133,86.976135 
	C420.812317,98.268539 418.983643,97.266510 431.052155,97.241882 
	C437.335083,97.229057 439.896820,92.526283 436.995087,86.797394 
	C436.551056,85.920807 436.283569,84.605423 436.606323,83.745018 
	C439.213043,76.795883 436.849945,73.148170 429.552094,73.100677 
	C428.226868,73.092049 426.898529,73.157539 425.576843,73.088745 
	C421.992065,72.902161 420.320557,74.527397 420.656525,79.024551 
M332.009552,90.575249 
	C334.620117,93.495193 335.542450,99.198090 341.839844,96.693962 
	C340.831757,95.333229 340.025330,94.275772 339.253021,93.193962 
	C338.392944,91.989220 337.563965,90.762306 336.712555,89.532234 
	C341.180603,87.023666 342.799866,83.205818 341.699951,78.266953 
	C340.601410,73.334145 336.912598,72.936760 332.858551,73.071350 
	C331.362396,73.121017 329.859772,73.145477 328.366150,73.066284 
	C325.052979,72.890633 323.398743,74.384811 323.406616,77.728676 
	C323.421417,84.029007 323.410919,90.329399 323.410919,96.957558 
	C325.024628,96.957558 326.398071,96.957558 328.127136,96.957558 
	C328.127136,90.370285 328.127136,83.936394 328.127136,77.058922 
	C329.920929,77.058922 331.373840,77.134476 332.816040,77.042229 
	C335.344208,76.880539 337.067322,77.520378 337.037567,80.505081 
	C337.012970,82.972450 337.043884,85.176514 333.542786,85.244034 
	C329.684113,85.318443 330.347473,87.619110 332.009552,90.575249 
M287.764618,83.570068 
	C287.764618,81.475731 287.764618,79.381401 287.764618,77.055595 
	C289.282074,77.055595 290.090393,77.047188 290.898468,77.057152 
	C293.480408,77.088997 296.514252,76.345047 296.806366,80.403595 
	C297.036316,83.598915 295.931549,85.452271 292.324371,85.353378 
	C291.605286,85.333656 290.277313,86.663696 290.204803,87.460083 
	C289.855530,91.296623 297.083374,97.378807 301.262421,96.648926 
	C300.362183,95.362328 299.535980,94.186859 298.715546,93.007378 
	C297.882721,91.810143 297.055634,90.608948 296.214233,89.392403 
	C300.969818,87.077553 302.304382,83.859650 301.036072,77.795662 
	C300.093262,73.288040 296.585602,73.065994 292.965363,73.082260 
	C291.138580,73.090469 289.311249,73.060974 287.485046,73.094505 
	C284.488312,73.149521 282.933563,74.497185 282.995819,77.700043 
	C283.115112,83.841934 283.052185,89.987289 283.092010,96.131035 
	C283.093811,96.407326 283.362488,96.681885 283.677826,97.283218 
	C284.928436,97.172791 286.313019,97.050529 287.764984,96.922325 
	C287.764984,92.512627 287.764984,88.528503 287.764618,83.570068 
M257.045715,126.419907 
	C256.340820,128.707672 255.635910,130.995438 254.926712,133.297089 
	C258.443207,134.572906 260.361877,133.505661 260.700165,130.428787 
	C261.102936,126.765053 263.692688,127.645447 265.866730,127.588783 
	C268.300903,127.525352 271.018799,126.971748 271.400909,130.700714 
	C271.768951,134.292297 274.078339,134.216614 277.143646,133.379120 
	C274.938873,126.357292 272.963135,119.402000 270.476410,112.634453 
	C269.891174,111.041702 267.460083,108.962257 266.096863,109.111023 
	C264.337036,109.303055 262.064392,111.188866 261.309113,112.913177 
	C259.529938,116.974945 258.519531,121.373474 257.045715,126.419907 
M344.515198,109.100151 
	C343.133514,109.167122 341.751801,109.234093 339.969330,109.320480 
	C340.274506,116.047882 340.231354,122.208618 340.937683,128.282196 
	C341.447998,132.670471 344.836578,134.432556 350.361694,134.054108 
	C354.591644,133.764343 357.916748,132.239105 358.008575,127.330307 
	C358.120026,121.371674 358.035034,115.409370 358.035034,109.232056 
	C356.552551,109.232056 355.307312,109.232056 353.748932,109.232056 
	C353.748932,114.515297 353.806122,119.660500 353.726257,124.803574 
	C353.682251,127.636887 353.127502,130.164658 349.377930,130.151993 
	C345.669403,130.139450 345.077454,127.833008 345.096558,124.840675 
	C345.128387,119.851791 345.064972,114.862297 344.515198,109.100151 
M403.307159,91.487762 
	C406.110565,91.487762 408.913940,91.487762 411.730774,91.487762 
	C413.386688,93.705887 412.443085,99.240349 418.356812,96.525505 
	C416.195496,89.624977 414.250031,82.768585 411.794189,76.100136 
	C411.284149,74.715210 408.920013,73.320984 407.339691,73.235367 
	C406.010223,73.163338 403.788635,74.707825 403.323792,76.019363 
	C400.915314,82.814804 398.944031,89.765190 396.713074,97.009872 
	C398.547211,97.009872 399.957306,97.009872 401.373596,97.009872 
	C401.957275,95.336342 402.492493,93.801849 403.307159,91.487762 
M309.173615,97.274185 
	C319.886169,97.299896 319.886169,97.299896 319.748718,93.554810 
	C316.549713,93.554810 313.331207,93.554810 310.031189,93.554810 
	C310.031189,91.119278 310.031189,89.208420 310.031189,86.943314 
	C313.369934,86.943314 316.474335,86.943314 319.823975,86.943314 
	C319.823975,85.807358 319.960144,84.375381 319.803894,84.342735 
	C316.578522,83.668785 313.319885,83.154068 309.779419,82.559319 
	C309.856842,80.878777 309.936890,79.141907 310.032135,77.075058 
	C313.494019,77.075058 316.594421,77.075058 319.694824,77.075058 
	C319.990601,76.644249 320.286346,76.213448 320.582123,75.782639 
	C319.511932,74.884567 318.531921,73.388405 317.353149,73.210693 
	C314.755188,72.819069 312.055725,73.042603 309.399963,73.107689 
	C306.399353,73.181229 304.904785,74.624451 304.979004,77.793282 
	C305.099487,82.939034 304.781097,88.106956 305.164032,93.226921 
	C305.269226,94.633034 307.210236,95.901825 309.173615,97.274185 
M269.267029,82.384651 
	C269.267029,80.775116 269.267029,79.165573 269.267029,77.137230 
	C273.047607,77.137230 276.301422,77.137230 281.039307,77.137230 
	C279.672668,75.198326 279.110199,73.449463 278.176971,73.222076 
	C267.806427,70.695160 264.768921,73.132004 264.768616,83.664383 
	C264.768616,84.329872 264.757050,84.995583 264.770294,85.660812 
	C265.031952,98.801834 262.415619,97.125984 276.943878,97.266403 
	C277.276581,97.269615 277.734406,97.406288 277.920685,97.240799 
	C278.771057,96.485199 279.545258,95.643837 280.987427,94.185577 
	C268.914856,93.367332 268.914856,93.367332 269.659149,86.866409 
	C272.808105,86.866409 276.036865,86.866409 279.265594,86.866409 
	C279.475891,86.393280 279.686188,85.920151 279.896454,85.447029 
	C278.899292,84.692963 277.982330,83.469765 276.888214,83.282631 
	C274.619873,82.894661 272.257446,83.057053 269.267029,82.384651 
M360.940308,93.139252 
	C361.559998,89.527321 359.976349,87.095474 356.907959,85.358620 
	C354.746918,84.135368 352.567474,82.896469 350.608002,81.389259 
	C349.834625,80.794418 349.134705,79.332809 349.336182,78.489159 
	C349.493713,77.829704 351.070099,77.183609 352.058411,77.111351 
	C354.659790,76.921165 357.284302,77.047050 359.899567,77.047050 
	C360.137787,76.511841 360.376007,75.976631 360.614197,75.441414 
	C359.423737,74.658852 358.321686,73.482414 357.021088,73.190483 
	C355.279816,72.799629 353.233704,72.646133 351.591522,73.200150 
	C349.197021,74.007988 346.007416,74.994072 345.023285,76.878807 
	C343.368469,80.047890 344.780396,83.317421 348.217377,85.236931 
	C350.387115,86.448692 352.653625,87.561646 354.588135,89.085350 
	C355.422302,89.742386 355.895172,91.357529 355.800476,92.475441 
	C355.755768,93.003166 354.009216,93.699959 352.995178,93.771240 
	C350.381378,93.954971 347.746002,93.832733 343.886353,93.832733 
	C345.116089,95.549484 345.563049,96.914688 346.359802,97.164589 
	C351.272614,98.705444 358.687225,96.914650 360.940308,93.139252 
M222.499146,120.499313 
	C222.499146,124.793495 222.499146,129.087677 222.499146,133.547745 
	C224.219833,133.547745 225.449966,133.547745 227.163162,133.547745 
	C227.163162,126.573486 227.163162,119.825714 227.163162,113.125389 
	C234.662109,112.732742 234.662109,112.732742 233.976593,109.250458 
	C227.693924,109.250458 221.421097,109.250458 214.955948,109.250458 
	C214.655533,115.938431 220.572464,111.061890 222.499222,114.013321 
	C222.499222,115.535393 222.499222,117.521622 222.499146,120.499313 
M156.773132,101.825111 
	C157.242676,102.282425 157.700928,103.124702 158.183472,103.138855 
	C164.617783,103.327621 171.060791,103.555557 177.486786,103.337151 
	C178.465942,103.303871 180.392990,100.639557 180.099457,99.941414 
	C179.459030,98.418091 177.748886,96.423431 176.338745,96.308907 
	C171.058975,95.880119 165.720093,96.006607 160.411316,96.175171 
	C157.442215,96.269447 155.836288,97.928650 156.773132,101.825111 
M198.685349,81.490746 
	C198.685349,86.605385 198.685349,91.720016 198.685349,97.032372 
	C200.302734,97.032372 201.533859,97.032372 203.219269,97.032372 
	C203.219269,90.252319 203.219269,83.693237 203.219269,76.748451 
	C205.934738,76.748451 208.185242,76.748451 210.435760,76.748451 
	C210.521591,76.125793 210.607422,75.503136 210.693253,74.880470 
	C205.480316,70.991356 198.966171,73.994560 193.177338,73.256363 
	C192.475296,73.166840 191.514328,75.107643 189.794296,77.152588 
	C193.987457,77.152588 196.269730,77.152588 198.684311,77.152588 
	C198.684311,78.502998 198.684311,79.497025 198.685349,81.490746 
M94.376762,39.947289 
	C95.484451,38.671757 97.458504,37.453934 97.547981,36.110584 
	C97.911255,30.656713 97.945930,25.144663 97.518219,19.699905 
	C97.411224,18.337803 95.129570,17.146528 93.847374,15.876743 
	C92.633705,17.175930 90.482513,18.400948 90.372818,19.787470 
	C89.955040,25.068396 89.953163,30.419508 90.346298,35.703442 
	C90.456970,37.191090 92.448227,38.538818 94.376762,39.947289 
M22.377552,96.085838 
	C19.055592,96.093323 15.659248,95.692955 12.442896,96.279518 
	C10.822847,96.574974 9.529368,98.661118 8.088216,99.937523 
	C9.519075,101.209038 10.816818,103.330017 12.407864,103.579346 
	C15.975633,104.138451 19.699343,103.938606 23.340343,103.723114 
	C26.528809,103.534393 31.517467,105.297226 31.687826,100.180748 
	C31.876986,94.499611 26.615063,96.554489 22.377552,96.085838 
M160.309753,48.823280 
	C162.514053,46.587822 165.063034,44.581795 166.770889,42.015900 
	C167.572372,40.811714 167.295670,38.178642 166.453323,36.873604 
	C165.990448,36.156490 162.738373,36.176094 161.776367,37.028622 
	C157.581482,40.746063 153.609100,44.755112 149.933365,48.986176 
	C149.124603,49.917130 149.267395,53.182777 150.009491,53.622551 
	C151.339005,54.410442 153.748032,54.450722 155.171448,53.737251 
	C156.996063,52.822681 158.292603,50.854576 160.309753,48.823280 
M39.571117,54.967159 
	C43.306377,53.977364 44.210175,51.528164 41.819035,48.768803 
	C38.149166,44.533802 34.110489,40.580917 29.901028,36.880642 
	C28.990864,36.080570 26.088474,36.235115 25.203962,37.089279 
	C24.332384,37.930954 24.109148,40.938210 24.892801,41.752396 
	C29.319286,46.351345 34.134346,50.576294 39.571117,54.967159 
M380.112732,94.791260 
	C383.970856,99.869415 389.384583,96.196594 393.985291,97.127335 
	C394.313141,97.193665 395.010010,95.436180 396.056854,93.623764 
	C391.642487,93.623764 388.413849,93.623764 384.727478,93.623764 
	C384.727478,86.478271 384.727478,79.879692 384.727478,73.303391 
	C382.969604,73.303391 381.699036,73.303391 380.025665,73.303391 
	C380.025665,80.301903 380.025665,87.102631 380.112732,94.791260 
M248.856949,116.485542 
	C248.856232,118.814445 248.844635,121.143410 248.857437,123.472237 
	C248.874878,126.645393 248.595673,129.465088 244.452271,130.027573 
	C243.745193,130.123550 243.296158,132.120453 242.551880,133.585724 
	C250.282394,133.788422 253.155975,132.061371 253.543518,126.673195 
	C253.956940,120.925270 253.636612,115.124573 253.636612,109.292847 
	C251.837051,109.292847 250.460709,109.292847 248.856949,109.292847 
	C248.856949,111.566246 248.856949,113.546265 248.856949,116.485542 
M250.848816,86.676483 
	C252.412811,89.184319 254.141739,91.606544 255.499146,94.221619 
	C257.204041,97.506142 259.555695,97.938820 263.441956,96.462837 
	C255.099380,89.678970 253.483078,82.515350 261.102844,74.679718 
	C261.405396,74.368614 261.407745,73.765610 261.786865,72.520683 
	C259.550934,73.248383 256.968079,73.288399 256.203094,74.487831 
	C253.893951,78.108391 252.291061,82.179413 250.848816,86.676483 
M203.994186,123.465485 
	C203.994186,118.702347 203.994186,113.939201 203.994186,108.806732 
	C202.074799,109.059586 200.719269,109.238167 199.239868,109.433052 
	C199.239868,116.650978 199.368073,123.436310 199.188324,130.213455 
	C199.091660,133.857925 200.640533,134.413467 203.994186,133.365143 
	C203.994186,130.354691 203.994186,127.400291 203.994186,123.465485 
M208.120667,124.440018 
	C208.120590,126.265800 208.264221,128.105377 208.090637,129.914520 
	C207.724075,133.734879 209.386826,134.490891 212.743256,133.362411 
	C212.743256,125.249481 212.743256,117.339096 212.743256,109.292526 
	C211.175980,109.292526 209.812119,109.292526 208.120667,109.292526 
	C208.120667,114.215042 208.120667,118.838287 208.120667,124.440018 
M217.124069,74.836601 
	C215.914963,74.130455 214.705856,73.424301 212.989548,72.421936 
	C212.989548,81.465149 212.989548,89.187584 212.989548,97.191582 
	C214.486130,97.112434 215.694427,97.048531 217.135162,96.972343 
	C217.135162,89.672989 217.135162,82.725258 217.124069,74.836601 
M245.536942,73.191940 
	C245.149979,81.007622 244.763000,88.823303 244.360825,96.946121 
	C246.230759,96.946121 247.429626,96.946121 249.010010,96.946121 
	C249.010010,89.745537 249.095154,82.666771 248.897980,75.595871 
	C248.874374,74.749451 247.315994,73.945831 245.536942,73.191940 
M367.856262,81.075203 
	C367.856262,78.472168 367.856262,75.869141 367.856262,73.266106 
	C367.340210,73.031784 366.824158,72.797455 366.308075,72.563133 
	C365.557129,73.761398 364.013885,75.123184 364.220398,76.123848 
	C364.648438,78.197693 361.727570,82.576157 367.856262,81.075203 
z"/>
<path fill="#FD8138" opacity="1.000000" stroke="none" 
	d="
M131.059998,140.024780 
	C124.897415,143.733704 119.151985,147.451508 113.150177,150.694870 
	C108.923355,152.979019 107.186569,156.105591 107.562492,160.813980 
	C107.813683,163.960068 107.631264,167.143768 107.585793,170.309799 
	C107.529861,174.203888 105.749336,176.799438 101.671112,176.897949 
	C97.286690,177.003845 95.368927,174.209564 95.329521,170.179092 
	C95.226883,159.680130 95.287239,149.179581 95.286522,138.679657 
	C95.286095,132.346375 95.198280,126.011147 95.327591,119.680428 
	C95.425697,114.877747 97.871986,112.215263 101.770874,112.529137 
	C106.178665,112.883972 107.607529,115.750832 107.531914,119.790184 
	C107.475777,122.788963 107.392807,125.798073 107.568932,128.788025 
	C107.897896,134.372589 111.994591,136.763062 116.970787,134.157562 
	C121.689575,131.686859 126.432106,129.166519 130.768433,126.107056 
	C132.503860,124.882645 134.114365,122.188324 134.182175,120.110878 
	C134.524536,109.622116 134.607239,99.104256 134.141312,88.625046 
	C134.032455,86.176872 131.990082,83.006355 129.882111,81.602318 
	C122.684357,76.808197 115.090843,72.601212 107.586594,68.277344 
	C103.990814,66.205482 101.742409,63.690414 103.886017,59.382965 
	C105.723022,55.691612 109.056671,55.134659 113.708061,57.735023 
	C123.157059,63.017502 132.513672,68.468414 142.029648,73.626129 
	C145.247284,75.370102 146.577271,77.773216 146.573578,81.247330 
	C146.557816,96.080551 146.526627,110.914032 146.604172,125.746872 
	C146.622833,129.316895 145.186996,131.700043 142.079681,133.407318 
	C138.433319,135.410782 134.931900,137.678055 131.059998,140.024780 
z"/>
<path fill="#FD8036" opacity="1.000000" stroke="none" 
	d="
M59.686806,141.301453 
	C54.965561,138.437653 50.282043,136.108734 46.264301,132.936584 
	C44.232719,131.332596 42.279823,128.231934 42.217808,125.759636 
	C41.846397,110.952919 41.848663,96.127449 42.220894,81.320709 
	C42.282753,78.860092 44.172867,75.482880 46.250008,74.200050 
	C55.868019,68.260025 65.851311,62.911648 75.701118,57.346657 
	C79.285934,55.321281 82.543709,55.495750 84.679520,59.304733 
	C86.833557,63.146183 85.124870,65.923218 81.609863,67.976463 
	C73.851822,72.508202 65.962769,76.849335 58.490589,81.815109 
	C56.402637,83.202690 54.485630,86.448570 54.373154,88.927429 
	C53.913342,99.061363 53.913452,109.240578 54.373840,119.374512 
	C54.487442,121.875053 56.428898,124.967697 58.482601,126.558380 
	C62.258820,129.483231 66.709045,131.555634 70.939064,133.872482 
	C76.601326,136.973816 80.920799,134.547318 81.135307,128.161072 
	C81.241432,125.001480 81.131691,121.835258 81.177605,118.672882 
	C81.232773,114.873604 83.232689,112.648529 86.989456,112.616211 
	C90.918503,112.582413 93.143517,114.638260 93.136894,118.814156 
	C93.109436,136.127258 93.140320,153.440445 93.115860,170.753555 
	C93.110542,174.515091 91.151039,176.727325 87.388908,176.927811 
	C83.526237,177.133682 81.480423,174.849640 81.172493,171.230682 
	C80.891121,167.923859 80.758293,164.543182 81.120529,161.256821 
	C81.697762,156.019852 79.429008,152.831573 75.006683,150.425034 
	C69.896515,147.644150 64.993027,144.483459 59.686806,141.301453 
z"/>
<path fill="#FCCF4A" opacity="1.000000" stroke="none" 
	d="
M105.023163,83.981445 
	C106.070488,85.901382 106.854340,87.789406 108.259361,88.869087 
	C111.725410,91.532570 111.609848,95.415886 108.106308,98.179764 
	C106.648056,99.330147 105.400879,101.395294 105.087402,103.221260 
	C104.323105,107.673119 101.504410,109.242020 97.118652,107.532120 
	C95.614273,106.945595 93.475380,106.911484 91.999489,107.524017 
	C87.134567,109.543083 84.093811,107.708916 83.614258,102.502617 
	C83.472580,100.964516 82.281311,99.109314 81.004608,98.166107 
	C76.966507,95.182800 77.007957,91.571838 81.038071,88.507339 
	C82.398155,87.473137 83.436531,85.445351 83.748405,83.714279 
	C84.557915,79.220970 87.462517,77.621849 91.772957,79.332123 
	C93.267609,79.925163 95.367119,79.992798 96.852798,79.421921 
	C101.295380,77.714851 103.612511,78.732819 105.023163,83.981445 
M94.403481,99.032425 
	C98.220100,98.648926 100.516640,96.347870 99.656876,92.762543 
	C99.213387,90.913101 96.516342,88.520531 94.696503,88.393456 
	C92.923340,88.269638 89.943413,90.358116 89.318672,92.121849 
	C88.162231,95.386650 89.515335,98.362862 94.403481,99.032425 
z"/>
<path fill="#121212" opacity="1.000000" stroke="none" 
	d="
M281.051147,133.797668 
	C280.285583,133.714600 279.694031,133.646622 279.691681,133.562241 
	C279.484863,126.138031 279.180115,118.709190 279.355499,111.291855 
	C279.375519,110.445488 282.341309,108.757576 283.518829,109.067047 
	C285.211761,109.511978 287.318085,111.170830 287.840820,112.771164 
	C289.569366,118.063148 290.666565,123.561356 292.755829,128.896912 
	C294.077332,123.605949 295.543335,118.345444 296.667175,113.012833 
	C297.363495,109.708679 299.449646,108.096756 302.269104,109.071526 
	C303.807953,109.603554 305.430176,112.218094 305.578217,114.011978 
	C306.014801,119.303787 305.573029,124.661415 305.793182,129.980118 
	C305.937439,133.465240 304.628265,134.488159 301.070801,133.443390 
	C301.070801,127.305344 301.070801,121.077278 301.070801,114.849213 
	C300.765808,114.803459 300.460815,114.757706 300.155823,114.711952 
	C299.045074,119.480751 298.228699,124.347847 296.684570,128.971939 
	C296.029480,130.933762 293.847565,132.385727 292.359589,134.069427 
	C290.885468,132.380341 288.746307,130.919235 288.073181,128.955582 
	C286.591309,124.632668 285.849609,120.056030 283.981110,115.657898 
	C283.981110,120.487000 284.149078,125.325928 283.867554,130.138565 
	C283.793640,131.402573 282.327118,132.585114 281.051147,133.797668 
z"/>
<path fill="#0B0B0B" opacity="1.000000" stroke="none" 
	d="
M309.796143,122.004608 
	C309.796509,118.851120 309.405365,116.107460 309.935150,113.554924 
	C310.287445,111.857475 312.287170,108.998161 312.971649,109.156525 
	C314.992249,109.624008 317.779236,110.958023 318.374512,112.627518 
	C320.199554,117.746315 321.140686,123.180275 323.391663,128.732315 
	C324.599792,123.973343 325.808563,119.214531 327.015472,114.455246 
	C327.259735,113.492073 327.182953,112.094315 327.798737,111.647583 
	C329.377319,110.502396 331.289093,109.075974 333.015045,109.141762 
	C334.115784,109.183723 335.957703,111.644951 336.028687,113.092026 
	C336.353943,119.723114 336.171722,126.379105 336.171722,133.405701 
	C334.647827,133.405701 333.326202,133.405701 331.739136,133.405701 
	C331.739136,127.071838 331.739136,120.866806 331.739136,114.661774 
	C331.460907,114.611794 331.182678,114.561821 330.904419,114.511841 
	C329.656891,119.606247 328.634521,124.772911 327.035889,129.754669 
	C326.498932,131.428040 324.535187,133.696228 323.151031,133.747849 
	C321.778198,133.799026 319.571747,131.648544 319.031952,130.029816 
	C317.534058,125.537621 316.713135,120.819687 314.767212,116.229034 
	C314.767212,121.819618 314.767212,127.410202 314.767212,133.404251 
	C312.933929,133.543900 311.605225,133.645126 309.796143,133.782928 
	C309.796143,129.756287 309.796143,126.125992 309.796143,122.004608 
z"/>
<path fill="#0F0F0F" opacity="1.000000" stroke="none" 
	d="
M233.234406,85.608551 
	C233.946182,87.816841 234.556946,89.637306 235.167709,91.457771 
	C235.446716,91.428276 235.725739,91.398773 236.004745,91.369270 
	C236.004745,88.364258 236.004745,85.359238 236.004745,82.354225 
	C236.004745,79.385590 236.004745,76.416954 236.004745,73.340744 
	C237.624237,73.340744 238.850052,73.340744 240.439087,73.340744 
	C240.439087,79.882782 240.372208,86.181671 240.469589,92.478020 
	C240.512985,95.283615 239.972595,97.600395 236.713760,97.782852 
	C233.726837,97.950081 231.795212,96.507652 230.991974,93.420593 
	C229.766678,88.711479 228.286560,84.068680 226.092865,79.500710 
	C226.092865,85.293564 226.092865,91.086418 226.092865,97.068802 
	C224.408340,97.068802 223.146606,97.068802 221.962997,97.068802 
	C221.699539,96.673073 221.379120,96.415695 221.377075,96.155823 
	C221.328644,90.006500 221.085205,83.843338 221.448013,77.716499 
	C221.544128,76.093224 223.575745,73.261948 224.629547,73.302475 
	C226.619553,73.379005 229.334473,74.664368 230.316147,76.304436 
	C231.873550,78.906425 232.254623,82.212517 233.234406,85.608551 
z"/>
<path fill="#0B0B0B" opacity="1.000000" stroke="none" 
	d="
M420.657196,78.580597 
	C420.320557,74.527397 421.992065,72.902161 425.576843,73.088745 
	C426.898529,73.157539 428.226868,73.092049 429.552094,73.100677 
	C436.849945,73.148170 439.213043,76.795883 436.606323,83.745018 
	C436.283569,84.605423 436.551056,85.920807 436.995087,86.797394 
	C439.896820,92.526283 437.335083,97.229057 431.052155,97.241882 
	C418.983643,97.266510 420.812317,98.268539 420.661133,86.976135 
	C420.625671,84.326057 420.656311,81.675102 420.657196,78.580597 
M425.023895,92.122147 
	C427.323547,92.505859 429.625977,93.095093 431.920013,93.064056 
	C432.287689,93.059082 433.199524,89.134651 432.871582,88.968102 
	C430.618011,87.823639 428.101379,87.197090 424.994537,86.183708 
	C424.994537,88.674988 424.994537,89.955727 425.023895,92.122147 
M430.996246,77.084053 
	C429.106201,77.084053 427.216156,77.084053 425.189697,77.084053 
	C425.103424,78.683022 424.975708,79.650803 425.021271,80.610359 
	C425.064148,81.512909 425.289825,82.406776 425.425598,83.246056 
	C433.220245,83.508499 434.028412,82.728271 430.996246,77.084053 
z"/>
<path fill="#131313" opacity="1.000000" stroke="none" 
	d="
M331.808594,90.280411 
	C330.347473,87.619110 329.684113,85.318443 333.542786,85.244034 
	C337.043884,85.176514 337.012970,82.972450 337.037567,80.505081 
	C337.067322,77.520378 335.344208,76.880539 332.816040,77.042229 
	C331.373840,77.134476 329.920929,77.058922 328.127136,77.058922 
	C328.127136,83.936394 328.127136,90.370285 328.127136,96.957558 
	C326.398071,96.957558 325.024628,96.957558 323.410919,96.957558 
	C323.410919,90.329399 323.421417,84.029007 323.406616,77.728676 
	C323.398743,74.384811 325.052979,72.890633 328.366150,73.066284 
	C329.859772,73.145477 331.362396,73.121017 332.858551,73.071350 
	C336.912598,72.936760 340.601410,73.334145 341.699951,78.266953 
	C342.799866,83.205818 341.180603,87.023666 336.712555,89.532234 
	C337.563965,90.762306 338.392944,91.989220 339.253021,93.193962 
	C340.025330,94.275772 340.831757,95.333229 341.839844,96.693962 
	C335.542450,99.198090 334.620117,93.495193 331.808594,90.280411 
z"/>
<path fill="#111111" opacity="1.000000" stroke="none" 
	d="
M287.764801,84.057220 
	C287.764984,88.528503 287.764984,92.512627 287.764984,96.922325 
	C286.313019,97.050529 284.928436,97.172791 283.677826,97.283218 
	C283.362488,96.681885 283.093811,96.407326 283.092010,96.131035 
	C283.052185,89.987289 283.115112,83.841934 282.995819,77.700043 
	C282.933563,74.497185 284.488312,73.149521 287.485046,73.094505 
	C289.311249,73.060974 291.138580,73.090469 292.965363,73.082260 
	C296.585602,73.065994 300.093262,73.288040 301.036072,77.795662 
	C302.304382,83.859650 300.969818,87.077553 296.214233,89.392403 
	C297.055634,90.608948 297.882721,91.810143 298.715546,93.007378 
	C299.535980,94.186859 300.362183,95.362328 301.262421,96.648926 
	C297.083374,97.378807 289.855530,91.296623 290.204803,87.460083 
	C290.277313,86.663696 291.605286,85.333656 292.324371,85.353378 
	C295.931549,85.452271 297.036316,83.598915 296.806366,80.403595 
	C296.514252,76.345047 293.480408,77.088997 290.898468,77.057152 
	C290.090393,77.047188 289.282074,77.055595 287.764618,77.055595 
	C287.764618,79.381401 287.764618,81.475731 287.764801,84.057220 
z"/>
<path fill="#171717" opacity="1.000000" stroke="none" 
	d="
M257.121948,126.027832 
	C258.519531,121.373474 259.529938,116.974945 261.309113,112.913177 
	C262.064392,111.188866 264.337036,109.303055 266.096863,109.111023 
	C267.460083,108.962257 269.891174,111.041702 270.476410,112.634453 
	C272.963135,119.402000 274.938873,126.357292 277.143646,133.379120 
	C274.078339,134.216614 271.768951,134.292297 271.400909,130.700714 
	C271.018799,126.971748 268.300903,127.525352 265.866730,127.588783 
	C263.692688,127.645447 261.102936,126.765053 260.700165,130.428787 
	C260.361877,133.505661 258.443207,134.572906 254.926712,133.297089 
	C255.635910,130.995438 256.340820,128.707672 257.121948,126.027832 
M268.166412,119.530029 
	C267.577332,117.617706 266.988281,115.705376 266.399231,113.793045 
	C266.048492,113.843872 265.697754,113.894691 265.347046,113.945511 
	C264.449829,117.194984 263.552612,120.444450 262.601959,123.887413 
	C265.233643,123.887413 267.140106,123.887413 269.304321,123.887413 
	C268.971588,122.532791 268.703461,121.441261 268.166412,119.530029 
z"/>
<path fill="#0F0F0F" opacity="1.000000" stroke="none" 
	d="
M344.778442,109.486603 
	C345.064972,114.862297 345.128387,119.851791 345.096558,124.840675 
	C345.077454,127.833008 345.669403,130.139450 349.377930,130.151993 
	C353.127502,130.164658 353.682251,127.636887 353.726257,124.803574 
	C353.806122,119.660500 353.748932,114.515297 353.748932,109.232056 
	C355.307312,109.232056 356.552551,109.232056 358.035034,109.232056 
	C358.035034,115.409370 358.120026,121.371674 358.008575,127.330307 
	C357.916748,132.239105 354.591644,133.764343 350.361694,134.054108 
	C344.836578,134.432556 341.447998,132.670471 340.937683,128.282196 
	C340.231354,122.208618 340.274506,116.047882 339.969330,109.320480 
	C341.751801,109.234093 343.133514,109.167122 344.778442,109.486603 
z"/>
<path fill="#0B0B0B" opacity="1.000000" stroke="none" 
	d="
M403.167419,91.877563 
	C402.492493,93.801849 401.957275,95.336342 401.373596,97.009872 
	C399.957306,97.009872 398.547211,97.009872 396.713074,97.009872 
	C398.944031,89.765190 400.915314,82.814804 403.323792,76.019363 
	C403.788635,74.707825 406.010223,73.163338 407.339691,73.235367 
	C408.920013,73.320984 411.284149,74.715210 411.794189,76.100136 
	C414.250031,82.768585 416.195496,89.624977 418.356812,96.525505 
	C412.443085,99.240349 413.386688,93.705887 411.730774,91.487762 
	C408.913940,91.487762 406.110565,91.487762 403.167419,91.877563 
M407.512909,77.443336 
	C406.321320,80.831512 405.129761,84.219688 403.892639,87.737320 
	C406.446686,87.737320 408.655701,87.737320 411.190948,87.737320 
	C410.044495,84.239822 409.019684,81.113358 407.512909,77.443336 
z"/>
<path fill="#0F0F0F" opacity="1.000000" stroke="none" 
	d="
M308.741211,97.253906 
	C307.210236,95.901825 305.269226,94.633034 305.164032,93.226921 
	C304.781097,88.106956 305.099487,82.939034 304.979004,77.793282 
	C304.904785,74.624451 306.399353,73.181229 309.399963,73.107689 
	C312.055725,73.042603 314.755188,72.819069 317.353149,73.210693 
	C318.531921,73.388405 319.511932,74.884567 320.582123,75.782639 
	C320.286346,76.213448 319.990601,76.644249 319.694824,77.075058 
	C316.594421,77.075058 313.494019,77.075058 310.032135,77.075058 
	C309.936890,79.141907 309.856842,80.878777 309.779419,82.559319 
	C313.319885,83.154068 316.578522,83.668785 319.803894,84.342735 
	C319.960144,84.375381 319.823975,85.807358 319.823975,86.943314 
	C316.474335,86.943314 313.369934,86.943314 310.031189,86.943314 
	C310.031189,89.208420 310.031189,91.119278 310.031189,93.554810 
	C313.331207,93.554810 316.549713,93.554810 319.748718,93.554810 
	C319.886169,97.299896 319.886169,97.299896 308.741211,97.253906 
z"/>
<path fill="#0A0A0A" opacity="1.000000" stroke="none" 
	d="
M269.600342,82.688904 
	C272.257446,83.057053 274.619873,82.894661 276.888214,83.282631 
	C277.982330,83.469765 278.899292,84.692963 279.896454,85.447029 
	C279.686188,85.920151 279.475891,86.393280 279.265594,86.866409 
	C276.036865,86.866409 272.808105,86.866409 269.659149,86.866409 
	C268.914856,93.367332 268.914856,93.367332 280.987427,94.185577 
	C279.545258,95.643837 278.771057,96.485199 277.920685,97.240799 
	C277.734406,97.406288 277.276581,97.269615 276.943878,97.266403 
	C262.415619,97.125984 265.031952,98.801834 264.770294,85.660812 
	C264.757050,84.995583 264.768616,84.329872 264.768616,83.664383 
	C264.768921,73.132004 267.806427,70.695160 278.176971,73.222076 
	C279.110199,73.449463 279.672668,75.198326 281.039307,77.137230 
	C276.301422,77.137230 273.047607,77.137230 269.267029,77.137230 
	C269.267029,79.165573 269.267029,80.775116 269.600342,82.688904 
z"/>
<path fill="#0D0D0D" opacity="1.000000" stroke="none" 
	d="
M360.845612,93.528381 
	C358.687225,96.914650 351.272614,98.705444 346.359802,97.164589 
	C345.563049,96.914688 345.116089,95.549484 343.886353,93.832733 
	C347.746002,93.832733 350.381378,93.954971 352.995178,93.771240 
	C354.009216,93.699959 355.755768,93.003166 355.800476,92.475441 
	C355.895172,91.357529 355.422302,89.742386 354.588135,89.085350 
	C352.653625,87.561646 350.387115,86.448692 348.217377,85.236931 
	C344.780396,83.317421 343.368469,80.047890 345.023285,76.878807 
	C346.007416,74.994072 349.197021,74.007988 351.591522,73.200150 
	C353.233704,72.646133 355.279816,72.799629 357.021088,73.190483 
	C358.321686,73.482414 359.423737,74.658852 360.614197,75.441414 
	C360.376007,75.976631 360.137787,76.511841 359.899567,77.047050 
	C357.284302,77.047050 354.659790,76.921165 352.058411,77.111351 
	C351.070099,77.183609 349.493713,77.829704 349.336182,78.489159 
	C349.134705,79.332809 349.834625,80.794418 350.608002,81.389259 
	C352.567474,82.896469 354.746918,84.135368 356.907959,85.358620 
	C359.976349,87.095474 361.559998,89.527321 360.845612,93.528381 
z"/>
<path fill="#0D0D0D" opacity="1.000000" stroke="none" 
	d="
M222.499176,120.003586 
	C222.499222,117.521622 222.499222,115.535393 222.499222,114.013321 
	C220.572464,111.061890 214.655533,115.938431 214.955948,109.250458 
	C221.421097,109.250458 227.693924,109.250458 233.976593,109.250458 
	C234.662109,112.732742 234.662109,112.732742 227.163162,113.125389 
	C227.163162,119.825714 227.163162,126.573486 227.163162,133.547745 
	C225.449966,133.547745 224.219833,133.547745 222.499146,133.547745 
	C222.499146,129.087677 222.499146,124.793495 222.499176,120.003586 
z"/>
<path fill="#FB8843" opacity="1.000000" stroke="none" 
	d="
M156.602509,101.474548 
	C155.836288,97.928650 157.442215,96.269447 160.411316,96.175171 
	C165.720093,96.006607 171.058975,95.880119 176.338745,96.308907 
	C177.748886,96.423431 179.459030,98.418091 180.099457,99.941414 
	C180.392990,100.639557 178.465942,103.303871 177.486786,103.337151 
	C171.060791,103.555557 164.617783,103.327621 158.183472,103.138855 
	C157.700928,103.124702 157.242676,102.282425 156.602509,101.474548 
z"/>
<path fill="#0A0A0A" opacity="1.000000" stroke="none" 
	d="
M198.684830,80.990891 
	C198.684311,79.497025 198.684311,78.502998 198.684311,77.152588 
	C196.269730,77.152588 193.987457,77.152588 189.794296,77.152588 
	C191.514328,75.107643 192.475296,73.166840 193.177338,73.256363 
	C198.966171,73.994560 205.480316,70.991356 210.693253,74.880470 
	C210.607422,75.503136 210.521591,76.125793 210.435760,76.748451 
	C208.185242,76.748451 205.934738,76.748451 203.219269,76.748451 
	C203.219269,83.693237 203.219269,90.252319 203.219269,97.032372 
	C201.533859,97.032372 200.302734,97.032372 198.685349,97.032372 
	C198.685349,91.720016 198.685349,86.605385 198.684830,80.990891 
z"/>
<path fill="#FB8946" opacity="1.000000" stroke="none" 
	d="
M93.976837,39.949005 
	C92.448227,38.538818 90.456970,37.191090 90.346298,35.703442 
	C89.953163,30.419508 89.955040,25.068396 90.372818,19.787470 
	C90.482513,18.400948 92.633705,17.175930 93.847374,15.876741 
	C95.129570,17.146528 97.411224,18.337803 97.518219,19.699905 
	C97.945930,25.144663 97.911255,30.656713 97.547981,36.110584 
	C97.458504,37.453934 95.484451,38.671757 93.976837,39.949005 
z"/>
<path fill="#FB8945" opacity="1.000000" stroke="none" 
	d="
M22.850252,96.085938 
	C26.615063,96.554489 31.876986,94.499611 31.687826,100.180748 
	C31.517467,105.297226 26.528809,103.534393 23.340343,103.723114 
	C19.699343,103.938606 15.975633,104.138451 12.407864,103.579346 
	C10.816818,103.330017 9.519075,101.209038 8.088217,99.937523 
	C9.529368,98.661118 10.822847,96.574974 12.442896,96.279518 
	C15.659248,95.692955 19.055592,96.093323 22.850252,96.085938 
z"/>
<path fill="#FA853F" opacity="1.000000" stroke="none" 
	d="
M160.063217,49.081844 
	C158.292603,50.854576 156.996063,52.822681 155.171448,53.737251 
	C153.748032,54.450722 151.339005,54.410442 150.009491,53.622551 
	C149.267395,53.182777 149.124603,49.917130 149.933365,48.986176 
	C153.609100,44.755112 157.581482,40.746063 161.776367,37.028622 
	C162.738373,36.176094 165.990448,36.156490 166.453323,36.873604 
	C167.295670,38.178642 167.572372,40.811714 166.770889,42.015900 
	C165.063034,44.581795 162.514053,46.587822 160.063217,49.081844 
z"/>
<path fill="#FB8641" opacity="1.000000" stroke="none" 
	d="
M39.194065,54.947914 
	C34.134346,50.576294 29.319286,46.351345 24.892801,41.752396 
	C24.109148,40.938210 24.332384,37.930954 25.203962,37.089279 
	C26.088474,36.235115 28.990864,36.080570 29.901028,36.880642 
	C34.110489,40.580917 38.149166,44.533802 41.819035,48.768803 
	C44.210175,51.528164 43.306377,53.977364 39.194065,54.947914 
z"/>
<path fill="#0D0D0D" opacity="1.000000" stroke="none" 
	d="
M380.069214,94.347305 
	C380.025665,87.102631 380.025665,80.301903 380.025665,73.303391 
	C381.699036,73.303391 382.969604,73.303391 384.727478,73.303391 
	C384.727478,79.879692 384.727478,86.478271 384.727478,93.623764 
	C388.413849,93.623764 391.642487,93.623764 396.056854,93.623764 
	C395.010010,95.436180 394.313141,97.193665 393.985291,97.127335 
	C389.384583,96.196594 383.970856,99.869415 380.069214,94.347305 
z"/>
<path fill="#161616" opacity="1.000000" stroke="none" 
	d="
M248.856949,116.005920 
	C248.856949,113.546265 248.856949,111.566246 248.856949,109.292847 
	C250.460709,109.292847 251.837051,109.292847 253.636612,109.292847 
	C253.636612,115.124573 253.956940,120.925270 253.543518,126.673195 
	C253.155975,132.061371 250.282394,133.788422 242.551880,133.585724 
	C243.296158,132.120453 243.745193,130.123550 244.452271,130.027573 
	C248.595673,129.465088 248.874878,126.645393 248.857437,123.472237 
	C248.844635,121.143410 248.856232,118.814445 248.856949,116.005920 
z"/>
<path fill="#0C0C0C" opacity="1.000000" stroke="none" 
	d="
M250.630829,86.375656 
	C252.291061,82.179413 253.893951,78.108391 256.203094,74.487831 
	C256.968079,73.288399 259.550934,73.248383 261.786865,72.520683 
	C261.407745,73.765610 261.405396,74.368614 261.102844,74.679718 
	C253.483078,82.515350 255.099380,89.678970 263.441956,96.462837 
	C259.555695,97.938820 257.204041,97.506142 255.499146,94.221619 
	C254.141739,91.606544 252.412811,89.184319 250.630829,86.375656 
z"/>
<path fill="#1F1F1F" opacity="1.000000" stroke="none" 
	d="
M203.994186,123.955688 
	C203.994186,127.400291 203.994186,130.354691 203.994186,133.365143 
	C200.640533,134.413467 199.091660,133.857925 199.188324,130.213455 
	C199.368073,123.436310 199.239868,116.650978 199.239868,109.433052 
	C200.719269,109.238167 202.074799,109.059586 203.994186,108.806732 
	C203.994186,113.939201 203.994186,118.702347 203.994186,123.955688 
z"/>
<path fill="#1D1D1D" opacity="1.000000" stroke="none" 
	d="
M208.120667,123.950775 
	C208.120667,118.838287 208.120667,114.215042 208.120667,109.292526 
	C209.812119,109.292526 211.175980,109.292526 212.743256,109.292526 
	C212.743256,117.339096 212.743256,125.249481 212.743256,133.362411 
	C209.386826,134.490891 207.724075,133.734879 208.090637,129.914520 
	C208.264221,128.105377 208.120590,126.265800 208.120667,123.950775 
z"/>
<path fill="#030303" opacity="1.000000" stroke="none" 
	d="
M217.129608,75.307068 
	C217.135162,82.725258 217.135162,89.672989 217.135162,96.972343 
	C215.694427,97.048531 214.486130,97.112434 212.989548,97.191582 
	C212.989548,89.187584 212.989548,81.465149 212.989548,72.421936 
	C214.705856,73.424301 215.914963,74.130455 217.129608,75.307068 
z"/>
<path fill="#030303" opacity="1.000000" stroke="none" 
	d="
M246.002960,73.157158 
	C247.315994,73.945831 248.874374,74.749451 248.897980,75.595871 
	C249.095154,82.666771 249.010010,89.745537 249.010010,96.946121 
	C247.429626,96.946121 246.230759,96.946121 244.360825,96.946121 
	C244.763000,88.823303 245.149979,81.007622 246.002960,73.157158 
z"/>
<path fill="#222222" opacity="1.000000" stroke="none" 
	d="
M367.607697,81.447754 
	C361.727570,82.576157 364.648438,78.197693 364.220398,76.123848 
	C364.013885,75.123184 365.557129,73.761398 366.308075,72.563133 
	C366.824158,72.797455 367.340210,73.031784 367.856262,73.266106 
	C367.856262,75.869141 367.856262,78.472168 367.607697,81.447754 
z"/>
<path fill="#FEFBF1" opacity="1.000000" stroke="none" 
	d="
M94.002312,99.026154 
	C89.515335,98.362862 88.162231,95.386650 89.318672,92.121849 
	C89.943413,90.358116 92.923340,88.269638 94.696503,88.393456 
	C96.516342,88.520531 99.213387,90.913101 99.656876,92.762543 
	C100.516640,96.347870 98.220100,98.648926 94.002312,99.026154 
z"/>
<path fill="#F2F2F2" opacity="1.000000" stroke="none" 
	d="
M425.009216,91.679306 
	C424.994537,89.955727 424.994537,88.674988 424.994537,86.183708 
	C428.101379,87.197090 430.618011,87.823639 432.871582,88.968102 
	C433.199524,89.134651 432.287689,93.059082 431.920013,93.064056 
	C429.625977,93.095093 427.323547,92.505859 425.009216,91.679306 
z"/>
<path fill="#F6F6F6" opacity="1.000000" stroke="none" 
	d="
M431.399170,77.239899 
	C434.028412,82.728271 433.220245,83.508499 425.425598,83.246056 
	C425.289825,82.406776 425.064148,81.512909 425.021271,80.610359 
	C424.975708,79.650803 425.103424,78.683022 425.189697,77.084053 
	C427.216156,77.084053 429.106201,77.084053 431.399170,77.239899 
z"/>
<path fill="#EBEBEB" opacity="1.000000" stroke="none" 
	d="
M268.300873,119.939880 
	C268.703461,121.441261 268.971588,122.532791 269.304321,123.887413 
	C267.140106,123.887413 265.233643,123.887413 262.601959,123.887413 
	C263.552612,120.444450 264.449829,117.194984 265.347046,113.945511 
	C265.697754,113.894691 266.048492,113.843872 266.399231,113.793045 
	C266.988281,115.705376 267.577332,117.617706 268.300873,119.939880 
z"/>
<path fill="#EDEDED" opacity="1.000000" stroke="none" 
	d="
M407.753906,77.715118 
	C409.019684,81.113358 410.044495,84.239822 411.190948,87.737320 
	C408.655701,87.737320 406.446686,87.737320 403.892639,87.737320 
	C405.129761,84.219688 406.321320,80.831512 407.753906,77.715118 
z"/>
</svg>